# xmcd
#
# Track frame offsets:
#	150
#	13290
#	33839
#	52794
#	66919
#	82037
#	95222
#	111439
#	133117
#	149379
#	166034
#	181399
#	192971
#	207020
#
# Disc length: 2935
#
# Revision: 1
# Processed by: cddbd v1.5.1PL0 Copyright (c) Steve Scherf et al.
# Submitted via: EasyCDDAExtractor 5.0.0.0
# Normalized: r0:TDELIM( - )
#
DISCID=c60b750e
DTITLE=Various Artist - Mr Music Country 04-10
DYEAR=1900
DGENRE=Country
TTITLE0=You know it's country - Keith Norris
TTITLE1=Fun all wrong - Roger Creager
TTITLE2=My one and only love - Ricky Dean Morgan
TTITLE3=I'll be your San Antone rose - Susan Anderson Bell
TTITLE4=If you ever get to Houston - Cowboy Johnson
TTITLE5=Is anybody going to San Antone - Dave Kirby
TTITLE6=Yellow wine - Pauline Reese
TTITLE7=Never let the devil get the upper hand of you - Marty Stuart
TTITLE8=I thank you - Suzie Merwine
TTITLE9=Best I Can - Jarrod Birmingham
TTITLE10=Phantom of the Grand Ole Opry - Candi Carpenter and Jack Greene
TTITLE11=How can I say goodbye - Steve Eriksson
TTITLE12=Gone away - Steve Bice
TTITLE13=Hold fast to the right - June Carter and Johnny Cash
EXTD=
EXTT0=
EXTT1=
EXTT2=
EXTT3=
EXTT4=
EXTT5=
EXTT6=
EXTT7=
EXTT8=
EXTT9=
EXTT10=
EXTT11=
EXTT12=
EXTT13=
PLAYORDER=
